# xmcd
# 
# Track frame offsets:
#     150
#     14517
#     27257
#     48265
#     60432
#     77022
#     95707
#     113962
#     129632
#     150822
#     183565
#     206012
#     228167
#     246867
# 
# Disc length: 3605
# 
# Revision: 5
# Processed by: cddbd v1.5.2PL0 Copyright (c) Steve Scherf et al.
# Submitted via: BonkEnc v1.0.8
# 
DISCID=af0e130e
DTITLE=浅川マキ - DARKNESS I (初期作品集 DISC 1)
DYEAR=1995
DGENRE=Pop
TTITLE0=夜が明けたら
TTITLE1=ふしあわせという名の猫
TTITLE2=淋しさには名前がない
TTITLE3=ちっちゃな時から
TTITLE4=めくら花
TTITLE5=ゴビンダ
TTITLE6=別れ
TTITLE7=にぎわい
TTITLE8=難破ブルース
TTITLE9=セント・ジェームス病院
TTITLE10=裏窓
TTITLE11=ハスリン・ダン
TTITLE12=あの娘がくれたブルース
TTITLE13=花いちもんめ
EXTD=YEAR: 1995
EXTT0=
EXTT1=
EXTT2=
EXTT3=
EXTT4=
EXTT5=
EXTT6=
EXTT7=
EXTT8=
EXTT9=
EXTT10=
EXTT11=
EXTT12=
EXTT13=
PLAYORDER=
